<svg width="39" height="39" viewBox="0 0 39 39" fill="none" xmlns="http://www.w3.org/2000/svg">
<path d="M9.69218 28.2567C18.963 27.9085 23.9701 35.3449 28.0436 39L39 30.9869C34.786 27.1912 30.9934 10.7433 28.0436 7.3694C25.0938 3.99547 21.2112 7.39397 16.6658 8.63463C12.0305 9.89985 14.2779 13.8361 14.5588 15.3825L13.2947 13.2738L5.28807 3.15199C4.72619 2.30851 2.33827 -0.812412 0.652675 0.199767C-1.03292 1.21195 1.02961 4.2766 1.45101 5.26066C1.45101 5.26066 13.716 21.5088 12.642 23.1958C11.5679 24.8827 1.6856 23.1958 0.842798 25.3045C0 27.4132 1.22319 26.4872 2.5284 26.9914C3.88626 27.516 7.43287 28.3415 9.69218 28.2567Z" fill="black"/>
</svg>
